<svg xmlns="http://www.w3.org/2000/svg" viewBox="1.250000238418579 1.25 21.503826141357422 21.500446319580078"><g><g fill="#fff" fill-rule="evenodd" clip-rule="evenodd"><path d="M9.451 1.25h.098c1.602 0 2.872 0 3.876.119 1.03.122 1.88.377 2.588.96.24.197.461.417.659.658.551.671.81 1.469.94 2.428.126.943.137 2.119.138 3.584a.75.75 0 0 1-1.5.002c-.001-1.492-.014-2.56-.125-3.385-.11-.808-.303-1.3-.613-1.678a3.256 3.256 0 0 0-.45-.45c-.398-.326-.924-.525-1.813-.63-.906-.107-2.087-.108-3.749-.108s-2.843.001-3.749.108c-.889.105-1.415.304-1.813.63a3.25 3.25 0 0 0-.45.45c-.326.398-.525.924-.63 1.813-.107.906-.108 2.087-.108 3.749s.001 2.843.108 3.749c.105.889.304 1.415.63 1.813.135.164.286.315.45.45.377.31.87.504 1.678.613.824.11 1.893.124 3.385.125a.75.75 0 0 1-.002 1.5c-1.465-.001-2.64-.012-3.584-.139-.96-.13-1.756-.388-2.428-.94a4.751 4.751 0 0 1-.659-.658c-.582-.709-.837-1.557-.96-2.588-.118-1.004-.118-2.274-.118-3.876V9.45c0-1.602 0-2.872.119-3.876.122-1.03.377-1.88.96-2.588a4.75 4.75 0 0 1 .658-.659c.709-.582 1.557-.837 2.588-.96C6.58 1.25 7.85 1.25 9.451 1.25z" fill="#fff" opacity="1" data-original="#000000" class=""></path><path d="M12.204 8.902a.75.75 0 0 1-.646.842c-.68.089-1.06.243-1.326.462-.245.201-.4.462-.497.942a.75.75 0 1 1-1.47-.296c.145-.72.435-1.328 1.014-1.805.572-.47 1.268-.684 2.084-.79a.75.75 0 0 1 .841.645zm6.592 0a.75.75 0 0 1 .841-.646c.816.107 1.512.32 2.084.791.58.477.87 1.084 1.014 1.805a.75.75 0 1 1-1.47.296c-.097-.48-.252-.74-.497-.942-.266-.219-.645-.373-1.326-.462a.75.75 0 0 1-.646-.842zM13.25 9a.75.75 0 0 1 .75-.75h3a.75.75 0 1 1 0 1.5h-3a.75.75 0 0 1-.75-.75zM9 13.25a.75.75 0 0 1 .75.75v3a.75.75 0 0 1-1.5 0v-3a.75.75 0 0 1 .75-.75zm13 0a.75.75 0 0 1 .75.75v3a.75.75 0 0 1-1.5 0v-3a.75.75 0 0 1 .75-.75zM8.852 19.265a.75.75 0 0 1 .883.587c.097.48.252.74.497.942.266.219.645.373 1.326.462a.75.75 0 1 1-.195 1.488c-.816-.107-1.512-.32-2.084-.791-.58-.477-.87-1.084-1.014-1.805a.75.75 0 0 1 .587-.883zm13.296 0a.75.75 0 0 1 .587.883c-.145.72-.435 1.328-1.014 1.805-.572.47-1.268.684-2.084.79a.75.75 0 0 1-.195-1.487c.68-.089 1.06-.243 1.326-.462.245-.201.4-.462.497-.942a.75.75 0 0 1 .883-.587zM13.25 22a.75.75 0 0 1 .75-.75h3a.75.75 0 0 1 0 1.5h-3a.75.75 0 0 1-.75-.75z" fill="#fff" opacity="1" data-original="#000000" class=""></path></g></g></svg>
