<svg xmlns="http://www.w3.org/2000/svg" version="1.1" xmlns:xlink="http://www.w3.org/1999/xlink" width="512" height="512" x="0" y="0" viewBox="0 0 512 512" style="enable-background:new 0 0 512 512" xml:space="preserve" class=""><g><path d="M192 120h-64a8 8 0 0 0-8 8v96a8 8 0 0 0 16 0v-32h48v32a8 8 0 0 0 16 0v-96a8 8 0 0 0-8-8zm-56 56v-40h48v40z" fill="#fff" opacity="1" data-original="#000000"></path><path d="M352 184a151.932 151.932 0 0 0-40.6 5.51c.4-4.48.6-9 .6-13.51 0-83.81-68.19-152-152-152S8 92.19 8 176s68.19 152 152 152a152.051 152.051 0 0 0 40.61-5.49q-.6 6.675-.61 13.49c0 83.81 68.19 152 152 152s152-68.19 152-152-68.19-152-152-152zM160 312c-74.99 0-136-61.01-136-136S85.01 40 160 40s136 61.01 136 136a137.367 137.367 0 0 1-1.36 19.25 152.562 152.562 0 0 0-91.46 109.74A135.4 135.4 0 0 1 160 312zm192 160c-74.99 0-136-61.01-136-136s61.01-136 136-136 136 61.01 136 136-61.01 136-136 136z" fill="#fff" opacity="1" data-original="#000000"></path><path d="M408 288a8 8 0 0 1-8 8h-18.36a306.3 306.3 0 0 1-19.75 42.48c10.16 15.5 22.95 31.89 34.23 38.66a8 8 0 0 1-8.24 13.72c-9.52-5.72-20.14-16.58-31.56-32.28-1.26-1.73-2.47-3.45-3.65-5.15-9.99 14.85-22.25 28.85-36.55 37.43a8 8 0 1 1-8.24-13.72c13.81-8.29 25.72-23.08 35.23-38.4-4.07-6.65-7.06-12.05-8.62-14.95a8 8 0 1 1 14.09-7.58c1.07 2 2.29 4.18 3.62 6.5 5.36-10.3 9.49-19.86 12.24-26.71H304a8 8 0 0 1 0-16h40v-8a8 8 0 0 1 16 0v8h40a8 8 0 0 1 8 8zM329.6 132.8a8 8 0 1 0 12.8-9.6L328 104h80v72a8 8 0 0 0 16 0V96a8 8 0 0 0-8-8h-88l14.4-19.2a8 8 0 0 0-12.8-9.6l-24 32a8 8 0 0 0 0 9.6zM182.4 379.2a8 8 0 0 0-12.8 9.6L184 408h-80v-72a8 8 0 0 0-16 0v80a8 8 0 0 0 8 8h88l-14.4 19.2a8 8 0 1 0 12.8 9.6l24-32a8 8 0 0 0 0-9.6z" fill="#fff" opacity="1" data-original="#000000"></path></g></svg>
